# xmcd
#
# Track frame offsets:
#	183
#	17278
#	34095
#	48525
#	65528
#	78168
#	102263
#	117353
#	136565
#	150788
#	175223
#	191185
#	210163
#	229218
#
# Disc length: 3354 seconds
#
# Revision: 0
# Processed by: cddbd v1.5PL3 Copyright (c) Steve Scherf et al.
# Submitted via: dBpowerAMP V4.0
#
DISCID=a50d180e
DTITLE=Rob Boekholt&friends - Together once
DYEAR=1900
DGENRE=Country
TTITLE0=Once
TTITLE1=Home
TTITLE2=So Happy
TTITLE3=Wishing well
TTITLE4=Dardanella
TTITLE5=Only friends
TTITLE6=Kekasih-ku
TTITLE7=Let her stay
TTITLE8=Hurricane beat
TTITLE9=Together
TTITLE10=The loser
TTITLE11=Pelabuan ratu
TTITLE12=No way out
TTITLE13=Thank you lord
EXTD=Rob Boekholt and friends
EXTT0=
EXTT1=
EXTT2=
EXTT3=
EXTT4=
EXTT5=
EXTT6=
EXTT7=
EXTT8=
EXTT9=
EXTT10=
EXTT11=
EXTT12=
EXTT13=
PLAYORDER=
